<?xml version="1.0" encoding="UTF-8" standalone="no"?>
<!DOCTYPE svg PUBLIC "-//W3C//DTD SVG 1.1//EN"
 "http://www.w3.org/Graphics/SVG/1.1/DTD/svg11.dtd">
<!-- Generated by graphviz version 2.47.0 (20210316.0004)
 -->
<!-- Title: dependencies Pages: 1 -->
<svg width="1806pt" height="352pt"
 viewBox="0.00 0.00 1806.00 352.00" xmlns="http://www.w3.org/2000/svg" xmlns:xlink="http://www.w3.org/1999/xlink">
<g id="graph0" class="graph" transform="scale(1 1) rotate(0) translate(4 348)">
<title>dependencies</title>
<polygon fill="white" stroke="transparent" points="-4,4 -4,-348 1802,-348 1802,4 -4,4"/>
<text text-anchor="start" x="878.01" y="-42.4" font-family="Times-12" font-weight="bold" font-size="14.00">Legend</text>
<polygon fill="#ffffb3" stroke="transparent" points="665,-10 665,-30 685,-30 685,-10 665,-10"/>
<text text-anchor="start" x="688.63" y="-15.4" font-family="Times-12" font-size="14.00"> &#160;Declarations</text>
<polygon fill="#8dd3c7" stroke="transparent" points="778,-10 778,-30 798,-30 798,-10 778,-10"/>
<text text-anchor="start" x="801.73" y="-15.4" font-family="Times-12" font-size="14.00"> &#160;Module</text>
<polygon fill="#80b1d3" stroke="transparent" points="864,-10 864,-30 884,-30 884,-10 864,-10"/>
<text text-anchor="start" x="887.78" y="-15.4" font-family="Times-12" font-size="14.00"> &#160;Bootstrap</text>
<polygon fill="#fdb462" stroke="transparent" points="961,-10 961,-30 981,-30 981,-10 961,-10"/>
<text text-anchor="start" x="984.67" y="-15.4" font-family="Times-12" font-size="14.00"> &#160;Providers</text>
<polygon fill="#fb8072" stroke="transparent" points="1057,-10 1057,-30 1077,-30 1077,-10 1057,-10"/>
<text text-anchor="start" x="1080.73" y="-15.4" font-family="Times-12" font-size="14.00"> &#160;Exports</text>
<g id="clust1" class="cluster">
<title>cluster_AdminModule</title>
<polygon fill="none" stroke="black" stroke-dasharray="1,5" points="896,-70 896,-271 1146,-271 1146,-70 896,-70"/>
</g>
<g id="clust3" class="cluster">
<title>cluster_AdminModule_imports</title>
<polygon fill="none" stroke="black" points="904,-78 904,-195 1138,-195 1138,-78 904,-78"/>
</g>
<g id="clust7" class="cluster">
<title>cluster_AppModule</title>
<polygon fill="none" stroke="black" stroke-dasharray="1,5" points="705,-211 705,-336 825,-336 825,-211 705,-211"/>
</g>
<g id="clust9" class="cluster">
<title>cluster_AppModule_imports</title>
<polygon fill="none" stroke="black" points="713,-219 713,-271 817,-271 817,-219 713,-219"/>
</g>
<g id="clust13" class="cluster">
<title>cluster_AuthModule</title>
<polygon fill="none" stroke="black" stroke-dasharray="1,5" points="8,-135 8,-203 888,-203 888,-135 8,-135"/>
</g>
<g id="clust16" class="cluster">
<title>cluster_AuthModule_exports</title>
<polygon fill="none" stroke="black" points="658,-143 658,-195 880,-195 880,-143 658,-143"/>
</g>
<g id="clust18" class="cluster">
<title>cluster_AuthModule_providers</title>
<polygon fill="none" stroke="black" points="16,-143 16,-195 650,-195 650,-143 16,-143"/>
</g>
<g id="clust19" class="cluster">
<title>cluster_OrdersModule</title>
<polygon fill="none" stroke="black" stroke-dasharray="1,5" points="1154,-211 1154,-279 1442,-279 1442,-211 1154,-211"/>
</g>
<g id="clust22" class="cluster">
<title>cluster_OrdersModule_exports</title>
<polygon fill="none" stroke="black" points="1318,-219 1318,-271 1434,-271 1434,-219 1318,-219"/>
</g>
<g id="clust24" class="cluster">
<title>cluster_OrdersModule_providers</title>
<polygon fill="none" stroke="black" points="1162,-219 1162,-271 1310,-271 1310,-219 1162,-219"/>
</g>
<g id="clust25" class="cluster">
<title>cluster_ProductsModule</title>
<polygon fill="none" stroke="black" stroke-dasharray="1,5" points="1166,-135 1166,-203 1480,-203 1480,-135 1166,-135"/>
</g>
<g id="clust28" class="cluster">
<title>cluster_ProductsModule_exports</title>
<polygon fill="none" stroke="black" points="1346,-143 1346,-195 1472,-195 1472,-143 1346,-143"/>
</g>
<g id="clust30" class="cluster">
<title>cluster_ProductsModule_providers</title>
<polygon fill="none" stroke="black" points="1174,-143 1174,-195 1338,-195 1338,-143 1174,-143"/>
</g>
<g id="clust31" class="cluster">
<title>cluster_UsersModule</title>
<polygon fill="none" stroke="black" stroke-dasharray="1,5" points="1516,-135 1516,-203 1790,-203 1790,-135 1516,-135"/>
</g>
<g id="clust34" class="cluster">
<title>cluster_UsersModule_exports</title>
<polygon fill="none" stroke="black" points="1672,-143 1672,-195 1782,-195 1782,-143 1672,-143"/>
</g>
<g id="clust36" class="cluster">
<title>cluster_UsersModule_providers</title>
<polygon fill="none" stroke="black" points="1524,-143 1524,-195 1664,-195 1664,-143 1524,-143"/>
</g>
<!-- OrdersModule -->
<g id="node1" class="node">
<title>OrdersModule</title>
<polygon fill="#8dd3c7" stroke="black" points="1113.64,-187 1110.64,-191 1089.64,-191 1086.64,-187 1016.36,-187 1016.36,-151 1113.64,-151 1113.64,-187"/>
<text text-anchor="middle" x="1065" y="-164.8" font-family="Times,serif" font-size="14.00">OrdersModule</text>
</g>
<!-- AdminModule -->
<g id="node4" class="node">
<title>AdminModule</title>
<polygon fill="#8dd3c7" stroke="black" points="1021.44,-263 1018.44,-267 997.44,-267 994.44,-263 922.56,-263 922.56,-227 1021.44,-227 1021.44,-263"/>
<text text-anchor="middle" x="972" y="-240.8" font-family="Times,serif" font-size="14.00">AdminModule</text>
</g>
<!-- OrdersModule&#45;&gt;AdminModule -->
<g id="edge1" class="edge">
<title>OrdersModule&#45;&gt;AdminModule</title>
<path fill="none" stroke="black" d="M1044.37,-187.03C1044.37,-207.77 1044.37,-239 1044.37,-239 1044.37,-239 1031.47,-239 1031.47,-239"/>
<polygon fill="black" stroke="black" points="1031.47,-235.5 1021.47,-239 1031.47,-242.5 1031.47,-235.5"/>
</g>
<!-- AppModule -->
<g id="node6" class="node">
<title>AppModule</title>
<polygon fill="#8dd3c7" stroke="black" points="816.66,-328 813.66,-332 792.66,-332 789.66,-328 733.34,-328 733.34,-292 816.66,-292 816.66,-328"/>
<text text-anchor="middle" x="775" y="-305.8" font-family="Times,serif" font-size="14.00">AppModule</text>
</g>
<!-- OrdersModule&#45;&gt;AppModule -->
<g id="edge6" class="edge">
<title>OrdersModule&#45;&gt;AppModule</title>
<path fill="none" stroke="black" d="M1067.52,-187.14C1067.52,-225.23 1067.52,-310 1067.52,-310 1067.52,-310 826.91,-310 826.91,-310"/>
<polygon fill="black" stroke="black" points="826.91,-306.5 816.91,-310 826.91,-313.5 826.91,-306.5"/>
</g>
<!-- OrdersService  -->
<g id="node13" class="node">
<title>OrdersService </title>
<polygon fill="#fb8072" stroke="black" points="1425.57,-263 1326.43,-263 1326.43,-227 1425.57,-227 1425.57,-263"/>
<text text-anchor="middle" x="1376" y="-240.8" font-family="Times,serif" font-size="14.00">OrdersService </text>
</g>
<!-- OrdersModule&#45;&gt;OrdersService  -->
<g id="edge17" class="edge">
<title>OrdersModule&#45;&gt;OrdersService </title>
<path fill="none" stroke="black" stroke-dasharray="5,2" d="M1090.67,-187.11C1090.67,-196.9 1090.67,-207 1090.67,-207 1090.67,-207 1341.78,-207 1341.78,-207 1341.78,-207 1341.78,-216.89 1341.78,-216.89"/>
<polygon fill="black" stroke="black" points="1338.28,-216.89 1341.78,-226.89 1345.28,-216.89 1338.28,-216.89"/>
</g>
<!-- ProductsModule -->
<g id="node2" class="node">
<title>ProductsModule</title>
<polygon fill="#8dd3c7" stroke="black" points="1020.04,-122 1017.04,-126 996.04,-126 993.04,-122 911.96,-122 911.96,-86 1020.04,-86 1020.04,-122"/>
<text text-anchor="middle" x="966" y="-99.8" font-family="Times,serif" font-size="14.00">ProductsModule</text>
</g>
<!-- ProductsModule&#45;&gt;OrdersModule -->
<g id="edge15" class="edge">
<title>ProductsModule&#45;&gt;OrdersModule</title>
<path fill="none" stroke="black" d="M1020.21,-104C1025.69,-104 1029.28,-104 1029.28,-104 1029.28,-104 1029.28,-140.89 1029.28,-140.89"/>
<polygon fill="black" stroke="black" points="1025.78,-140.89 1029.28,-150.89 1032.78,-140.89 1025.78,-140.89"/>
</g>
<!-- ProductsModule&#45;&gt;AdminModule -->
<g id="edge2" class="edge">
<title>ProductsModule&#45;&gt;AdminModule</title>
<path fill="none" stroke="black" d="M992.83,-122.14C992.83,-122.14 992.83,-216.93 992.83,-216.93"/>
<polygon fill="black" stroke="black" points="989.33,-216.92 992.83,-226.93 996.33,-216.93 989.33,-216.92"/>
</g>
<!-- ProductsModule&#45;&gt;AppModule -->
<g id="edge7" class="edge">
<title>ProductsModule&#45;&gt;AppModule</title>
<path fill="none" stroke="black" d="M917.25,-122.18C917.25,-170.95 917.25,-301 917.25,-301 917.25,-301 826.91,-301 826.91,-301"/>
<polygon fill="black" stroke="black" points="826.91,-297.5 816.91,-301 826.91,-304.5 826.91,-297.5"/>
</g>
<!-- ProductsService  -->
<g id="node15" class="node">
<title>ProductsService </title>
<polygon fill="#fb8072" stroke="black" points="1464.47,-187 1353.53,-187 1353.53,-151 1464.47,-151 1464.47,-187"/>
<text text-anchor="middle" x="1409" y="-164.8" font-family="Times,serif" font-size="14.00">ProductsService </text>
</g>
<!-- ProductsModule&#45;&gt;ProductsService  -->
<g id="edge19" class="edge">
<title>ProductsModule&#45;&gt;ProductsService </title>
<path fill="none" stroke="black" stroke-dasharray="5,2" d="M946.13,-122.21C946.13,-127.55 946.13,-132 946.13,-132 946.13,-132 1409,-132 1409,-132 1409,-132 1409,-140.93 1409,-140.93"/>
<polygon fill="black" stroke="black" points="1405.5,-140.93 1409,-150.93 1412.5,-140.93 1405.5,-140.93"/>
</g>
<!-- UsersModule -->
<g id="node3" class="node">
<title>UsersModule</title>
<polygon fill="#8dd3c7" stroke="black" points="1129.92,-122 1126.92,-126 1105.92,-126 1102.92,-122 1038.08,-122 1038.08,-86 1129.92,-86 1129.92,-122"/>
<text text-anchor="middle" x="1084" y="-99.8" font-family="Times,serif" font-size="14.00">UsersModule</text>
</g>
<!-- UsersModule&#45;&gt;OrdersModule -->
<g id="edge16" class="edge">
<title>UsersModule&#45;&gt;OrdersModule</title>
<path fill="none" stroke="black" d="M1076.05,-122.11C1076.05,-122.11 1076.05,-140.99 1076.05,-140.99"/>
<polygon fill="black" stroke="black" points="1072.55,-140.99 1076.05,-150.99 1079.55,-140.99 1072.55,-140.99"/>
</g>
<!-- UsersModule&#45;&gt;AdminModule -->
<g id="edge3" class="edge">
<title>UsersModule&#45;&gt;AdminModule</title>
<path fill="none" stroke="black" d="M1119.12,-122.03C1119.12,-161.28 1119.12,-251 1119.12,-251 1119.12,-251 1031.4,-251 1031.4,-251"/>
<polygon fill="black" stroke="black" points="1031.4,-247.5 1021.4,-251 1031.4,-254.5 1031.4,-247.5"/>
</g>
<!-- UsersModule&#45;&gt;AppModule -->
<g id="edge8" class="edge">
<title>UsersModule&#45;&gt;AppModule</title>
<path fill="none" stroke="black" d="M1124.41,-122.33C1124.41,-174.32 1124.41,-319 1124.41,-319 1124.41,-319 826.8,-319 826.8,-319"/>
<polygon fill="black" stroke="black" points="826.8,-315.5 816.8,-319 826.8,-322.5 826.8,-315.5"/>
</g>
<!-- UsersService  -->
<g id="node17" class="node">
<title>UsersService </title>
<polygon fill="#fb8072" stroke="black" points="1773.85,-187 1680.15,-187 1680.15,-151 1773.85,-151 1773.85,-187"/>
<text text-anchor="middle" x="1727" y="-164.8" font-family="Times,serif" font-size="14.00">UsersService </text>
</g>
<!-- UsersModule&#45;&gt;UsersService  -->
<g id="edge21" class="edge">
<title>UsersModule&#45;&gt;UsersService </title>
<path fill="none" stroke="black" stroke-dasharray="5,2" d="M1129.73,-98C1276.63,-98 1727,-98 1727,-98 1727,-98 1727,-140.72 1727,-140.72"/>
<polygon fill="black" stroke="black" points="1723.5,-140.72 1727,-150.72 1730.5,-140.72 1723.5,-140.72"/>
</g>
<!-- AdminModule&#45;&gt;AppModule -->
<g id="edge4" class="edge">
<title>AdminModule&#45;&gt;AppModule</title>
<path fill="none" stroke="black" d="M922.5,-245C875.77,-245 812.8,-245 812.8,-245 812.8,-245 812.8,-281.89 812.8,-281.89"/>
<polygon fill="black" stroke="black" points="809.3,-281.89 812.8,-291.89 816.3,-281.89 809.3,-281.89"/>
</g>
<!-- AuthModule -->
<g id="node5" class="node">
<title>AuthModule</title>
<polygon fill="#8dd3c7" stroke="black" points="808.55,-263 805.55,-267 784.55,-267 781.55,-263 721.45,-263 721.45,-227 808.55,-227 808.55,-263"/>
<text text-anchor="middle" x="765" y="-240.8" font-family="Times,serif" font-size="14.00">AuthModule</text>
</g>
<!-- AuthModule&#45;&gt;AppModule -->
<g id="edge5" class="edge">
<title>AuthModule&#45;&gt;AppModule</title>
<path fill="none" stroke="black" d="M770.97,-263.11C770.97,-263.11 770.97,-281.99 770.97,-281.99"/>
<polygon fill="black" stroke="black" points="767.47,-281.99 770.97,-291.99 774.47,-281.99 767.47,-281.99"/>
</g>
<!-- JwtAuthGuard  -->
<g id="node7" class="node">
<title>JwtAuthGuard </title>
<polygon fill="#fb8072" stroke="black" points="871.92,-187 770.08,-187 770.08,-151 871.92,-151 871.92,-187"/>
<text text-anchor="middle" x="821" y="-164.8" font-family="Times,serif" font-size="14.00">JwtAuthGuard </text>
</g>
<!-- AuthModule&#45;&gt;JwtAuthGuard  -->
<g id="edge9" class="edge">
<title>AuthModule&#45;&gt;JwtAuthGuard </title>
<path fill="none" stroke="black" stroke-dasharray="5,2" d="M789.41,-226.99C789.41,-226.99 789.41,-197.15 789.41,-197.15"/>
<polygon fill="black" stroke="black" points="792.91,-197.15 789.41,-187.15 785.91,-197.15 792.91,-197.15"/>
</g>
<!-- RolesGuard  -->
<g id="node8" class="node">
<title>RolesGuard </title>
<polygon fill="#fb8072" stroke="black" points="752.37,-187 665.63,-187 665.63,-151 752.37,-151 752.37,-187"/>
<text text-anchor="middle" x="709" y="-164.8" font-family="Times,serif" font-size="14.00">RolesGuard </text>
</g>
<!-- AuthModule&#45;&gt;RolesGuard  -->
<g id="edge10" class="edge">
<title>AuthModule&#45;&gt;RolesGuard </title>
<path fill="none" stroke="black" stroke-dasharray="5,2" d="M736.71,-226.99C736.71,-226.99 736.71,-197.15 736.71,-197.15"/>
<polygon fill="black" stroke="black" points="740.21,-197.15 736.71,-187.15 733.21,-197.15 740.21,-197.15"/>
</g>
<!-- AuthService -->
<g id="node9" class="node">
<title>AuthService</title>
<ellipse fill="#fdb462" stroke="black" cx="237" cy="-169" rx="59.11" ry="18"/>
<text text-anchor="middle" x="237" y="-164.8" font-family="Times,serif" font-size="14.00">AuthService</text>
</g>
<!-- AuthService&#45;&gt;AuthModule -->
<g id="edge11" class="edge">
<title>AuthService&#45;&gt;AuthModule</title>
<path fill="none" stroke="black" d="M237,-187.15C237,-210.76 237,-249 237,-249 237,-249 711.34,-249 711.34,-249"/>
<polygon fill="black" stroke="black" points="711.34,-252.5 721.34,-249 711.34,-245.5 711.34,-252.5"/>
</g>
<!-- JwtAuthGuard -->
<g id="node10" class="node">
<title>JwtAuthGuard</title>
<ellipse fill="#fdb462" stroke="black" cx="92" cy="-169" rx="67.78" ry="18"/>
<text text-anchor="middle" x="92" y="-164.8" font-family="Times,serif" font-size="14.00">JwtAuthGuard</text>
</g>
<!-- JwtAuthGuard&#45;&gt;AuthModule -->
<g id="edge12" class="edge">
<title>JwtAuthGuard&#45;&gt;AuthModule</title>
<path fill="none" stroke="black" d="M92,-187.03C92,-212.51 92,-256 92,-256 92,-256 711.36,-256 711.36,-256"/>
<polygon fill="black" stroke="black" points="711.36,-259.5 721.36,-256 711.36,-252.5 711.36,-259.5"/>
</g>
<!-- JwtStrategy -->
<g id="node11" class="node">
<title>JwtStrategy</title>
<ellipse fill="#fdb462" stroke="black" cx="585" cy="-169" rx="56.76" ry="18"/>
<text text-anchor="middle" x="585" y="-164.8" font-family="Times,serif" font-size="14.00">JwtStrategy</text>
</g>
<!-- JwtStrategy&#45;&gt;AuthModule -->
<g id="edge13" class="edge">
<title>JwtStrategy&#45;&gt;AuthModule</title>
<path fill="none" stroke="black" d="M585,-187.03C585,-206.58 585,-235 585,-235 585,-235 711.43,-235 711.43,-235"/>
<polygon fill="black" stroke="black" points="711.43,-238.5 721.43,-235 711.43,-231.5 711.43,-238.5"/>
</g>
<!-- RefreshTokenStrategy -->
<g id="node12" class="node">
<title>RefreshTokenStrategy</title>
<ellipse fill="#fdb462" stroke="black" cx="412" cy="-169" rx="97.83" ry="18"/>
<text text-anchor="middle" x="412" y="-164.8" font-family="Times,serif" font-size="14.00">RefreshTokenStrategy</text>
</g>
<!-- RefreshTokenStrategy&#45;&gt;AuthModule -->
<g id="edge14" class="edge">
<title>RefreshTokenStrategy&#45;&gt;AuthModule</title>
<path fill="none" stroke="black" d="M412,-187.04C412,-208.66 412,-242 412,-242 412,-242 711.36,-242 711.36,-242"/>
<polygon fill="black" stroke="black" points="711.36,-245.5 721.36,-242 711.36,-238.5 711.36,-245.5"/>
</g>
<!-- OrdersService -->
<g id="node14" class="node">
<title>OrdersService</title>
<ellipse fill="#fdb462" stroke="black" cx="1236" cy="-245" rx="66.03" ry="18"/>
<text text-anchor="middle" x="1236" y="-240.8" font-family="Times,serif" font-size="14.00">OrdersService</text>
</g>
<!-- OrdersService&#45;&gt;OrdersModule -->
<g id="edge18" class="edge">
<title>OrdersService&#45;&gt;OrdersModule</title>
<path fill="none" stroke="black" d="M1175.98,-237.15C1175.98,-217.74 1175.98,-169 1175.98,-169 1175.98,-169 1123.68,-169 1123.68,-169"/>
<polygon fill="black" stroke="black" points="1123.68,-165.5 1113.68,-169 1123.68,-172.5 1123.68,-165.5"/>
</g>
<!-- ProductsService -->
<g id="node16" class="node">
<title>ProductsService</title>
<ellipse fill="#fdb462" stroke="black" cx="1256" cy="-169" rx="73.57" ry="18"/>
<text text-anchor="middle" x="1256" y="-164.8" font-family="Times,serif" font-size="14.00">ProductsService</text>
</g>
<!-- ProductsService&#45;&gt;ProductsModule -->
<g id="edge20" class="edge">
<title>ProductsService&#45;&gt;ProductsModule</title>
<path fill="none" stroke="black" d="M1256,-150.84C1256,-145.96 1256,-142 1256,-142 1256,-142 969.48,-142 969.48,-142 969.48,-142 969.48,-132.11 969.48,-132.11"/>
<polygon fill="black" stroke="black" points="972.98,-132.11 969.48,-122.11 965.98,-132.11 972.98,-132.11"/>
</g>
<!-- UsersService -->
<g id="node18" class="node">
<title>UsersService</title>
<ellipse fill="#fdb462" stroke="black" cx="1594" cy="-169" rx="61.95" ry="18"/>
<text text-anchor="middle" x="1594" y="-164.8" font-family="Times,serif" font-size="14.00">UsersService</text>
</g>
<!-- UsersService&#45;&gt;UsersModule -->
<g id="edge22" class="edge">
<title>UsersService&#45;&gt;UsersModule</title>
<path fill="none" stroke="black" d="M1594,-150.98C1594,-133.63 1594,-110 1594,-110 1594,-110 1140.16,-110 1140.16,-110"/>
<polygon fill="black" stroke="black" points="1140.16,-106.5 1130.16,-110 1140.16,-113.5 1140.16,-106.5"/>
</g>
</g>
</svg>
