<?xml version="1.0" encoding="UTF-8" standalone="no"?>
<!DOCTYPE svg PUBLIC "-//W3C//DTD SVG 1.1//EN"
 "http://www.w3.org/Graphics/SVG/1.1/DTD/svg11.dtd">
<!-- Generated by graphviz version 2.47.0 (20210316.0004)
 -->
<!-- Title: dependencies Pages: 1 -->
<svg width="504pt" height="284pt"
 viewBox="0.00 0.00 504.00 284.00" xmlns="http://www.w3.org/2000/svg" xmlns:xlink="http://www.w3.org/1999/xlink">
<g id="graph0" class="graph" transform="scale(1 1) rotate(0) translate(4 280)">
<title>dependencies</title>
<polygon fill="white" stroke="transparent" points="-4,4 -4,-280 500,-280 500,4 -4,4"/>
<text text-anchor="start" x="227.01" y="-42.4" font-family="Times-12" font-weight="bold" font-size="14.00">Legend</text>
<polygon fill="#ffffb3" stroke="transparent" points="14,-10 14,-30 34,-30 34,-10 14,-10"/>
<text text-anchor="start" x="37.63" y="-15.4" font-family="Times-12" font-size="14.00"> &#160;Declarations</text>
<polygon fill="#8dd3c7" stroke="transparent" points="127,-10 127,-30 147,-30 147,-10 127,-10"/>
<text text-anchor="start" x="150.73" y="-15.4" font-family="Times-12" font-size="14.00"> &#160;Module</text>
<polygon fill="#80b1d3" stroke="transparent" points="213,-10 213,-30 233,-30 233,-10 213,-10"/>
<text text-anchor="start" x="236.78" y="-15.4" font-family="Times-12" font-size="14.00"> &#160;Bootstrap</text>
<polygon fill="#fdb462" stroke="transparent" points="310,-10 310,-30 330,-30 330,-10 310,-10"/>
<text text-anchor="start" x="333.67" y="-15.4" font-family="Times-12" font-size="14.00"> &#160;Providers</text>
<polygon fill="#fb8072" stroke="transparent" points="406,-10 406,-30 426,-30 426,-10 406,-10"/>
<text text-anchor="start" x="429.73" y="-15.4" font-family="Times-12" font-size="14.00"> &#160;Exports</text>
<g id="clust1" class="cluster">
<title>cluster_AdminModule</title>
<polygon fill="none" stroke="black" stroke-dasharray="1,5" points="23,-70 23,-268 473,-268 473,-70 23,-70"/>
</g>
<g id="clust3" class="cluster">
<title>cluster_AdminModule_imports</title>
<polygon fill="none" stroke="black" points="225,-78 225,-130 465,-130 465,-78 225,-78"/>
</g>
<g id="clust4" class="cluster">
<title>cluster_AdminModule_exports</title>
<polygon fill="none" stroke="black" points="216,-208 216,-260 358,-260 358,-208 216,-208"/>
</g>
<g id="clust6" class="cluster">
<title>cluster_AdminModule_providers</title>
<polygon fill="none" stroke="black" points="31,-78 31,-130 217,-130 217,-78 31,-78"/>
</g>
<!-- OrdersModule -->
<g id="node1" class="node">
<title>OrdersModule</title>
<polygon fill="#8dd3c7" stroke="black" points="456.64,-122 453.64,-126 432.64,-126 429.64,-122 359.36,-122 359.36,-86 456.64,-86 456.64,-122"/>
<text text-anchor="middle" x="408" y="-99.8" font-family="Times,serif" font-size="14.00">OrdersModule</text>
</g>
<!-- AdminModule -->
<g id="node3" class="node">
<title>AdminModule</title>
<polygon fill="#8dd3c7" stroke="black" points="336.44,-187 333.44,-191 312.44,-191 309.44,-187 237.56,-187 237.56,-151 336.44,-151 336.44,-187"/>
<text text-anchor="middle" x="287" y="-164.8" font-family="Times,serif" font-size="14.00">AdminModule</text>
</g>
<!-- OrdersModule&#45;&gt;AdminModule -->
<g id="edge1" class="edge">
<title>OrdersModule&#45;&gt;AdminModule</title>
<path fill="none" stroke="black" d="M408,-122.11C408,-141.34 408,-169 408,-169 408,-169 346.56,-169 346.56,-169"/>
<polygon fill="black" stroke="black" points="346.56,-165.5 336.56,-169 346.56,-172.5 346.56,-165.5"/>
</g>
<!-- ProductsModule -->
<g id="node2" class="node">
<title>ProductsModule</title>
<polygon fill="#8dd3c7" stroke="black" points="341.04,-122 338.04,-126 317.04,-126 314.04,-122 232.96,-122 232.96,-86 341.04,-86 341.04,-122"/>
<text text-anchor="middle" x="287" y="-99.8" font-family="Times,serif" font-size="14.00">ProductsModule</text>
</g>
<!-- ProductsModule&#45;&gt;AdminModule -->
<g id="edge2" class="edge">
<title>ProductsModule&#45;&gt;AdminModule</title>
<path fill="none" stroke="black" d="M287,-122.11C287,-122.11 287,-140.99 287,-140.99"/>
<polygon fill="black" stroke="black" points="283.5,-140.99 287,-150.99 290.5,-140.99 283.5,-140.99"/>
</g>
<!-- AdminUserService  -->
<g id="node4" class="node">
<title>AdminUserService </title>
<polygon fill="#fb8072" stroke="black" points="350.29,-252 223.71,-252 223.71,-216 350.29,-216 350.29,-252"/>
<text text-anchor="middle" x="287" y="-229.8" font-family="Times,serif" font-size="14.00">AdminUserService </text>
</g>
<!-- AdminModule&#45;&gt;AdminUserService  -->
<g id="edge3" class="edge">
<title>AdminModule&#45;&gt;AdminUserService </title>
<path fill="none" stroke="black" stroke-dasharray="5,2" d="M287,-187.11C287,-187.11 287,-205.99 287,-205.99"/>
<polygon fill="black" stroke="black" points="283.5,-205.99 287,-215.99 290.5,-205.99 283.5,-205.99"/>
</g>
<!-- AdminUserService -->
<g id="node5" class="node">
<title>AdminUserService</title>
<ellipse fill="#fdb462" stroke="black" cx="124" cy="-104" rx="85.09" ry="18"/>
<text text-anchor="middle" x="124" y="-99.8" font-family="Times,serif" font-size="14.00">AdminUserService</text>
</g>
<!-- AdminUserService&#45;&gt;AdminModule -->
<g id="edge4" class="edge">
<title>AdminUserService&#45;&gt;AdminModule</title>
<path fill="none" stroke="black" d="M124,-122.11C124,-141.34 124,-169 124,-169 124,-169 227.65,-169 227.65,-169"/>
<polygon fill="black" stroke="black" points="227.65,-172.5 237.65,-169 227.65,-165.5 227.65,-172.5"/>
</g>
</g>
</svg>
