<?xml version="1.0" encoding="UTF-8" standalone="no"?>
<!DOCTYPE svg PUBLIC "-//W3C//DTD SVG 1.1//EN"
 "http://www.w3.org/Graphics/SVG/1.1/DTD/svg11.dtd">
<!-- Generated by graphviz version 2.47.0 (20210316.0004)
 -->
<!-- Title: dependencies Pages: 1 -->
<svg width="1547pt" height="363pt"
 viewBox="0.00 0.00 1547.00 363.00" xmlns="http://www.w3.org/2000/svg" xmlns:xlink="http://www.w3.org/1999/xlink">
<g id="graph0" class="graph" transform="scale(1 1) rotate(0) translate(4 359)">
<title>dependencies</title>
<polygon fill="white" stroke="transparent" points="-4,4 -4,-359 1543,-359 1543,4 -4,4"/>
<text text-anchor="start" x="748.51" y="-42.4" font-family="Times-12" font-weight="bold" font-size="14.00">Legend</text>
<polygon fill="#ffffb3" stroke="transparent" points="535.5,-10 535.5,-30 555.5,-30 555.5,-10 535.5,-10"/>
<text text-anchor="start" x="559.13" y="-15.4" font-family="Times-12" font-size="14.00"> &#160;Declarations</text>
<polygon fill="#8dd3c7" stroke="transparent" points="648.5,-10 648.5,-30 668.5,-30 668.5,-10 648.5,-10"/>
<text text-anchor="start" x="672.23" y="-15.4" font-family="Times-12" font-size="14.00"> &#160;Module</text>
<polygon fill="#80b1d3" stroke="transparent" points="734.5,-10 734.5,-30 754.5,-30 754.5,-10 734.5,-10"/>
<text text-anchor="start" x="758.28" y="-15.4" font-family="Times-12" font-size="14.00"> &#160;Bootstrap</text>
<polygon fill="#fdb462" stroke="transparent" points="831.5,-10 831.5,-30 851.5,-30 851.5,-10 831.5,-10"/>
<text text-anchor="start" x="855.17" y="-15.4" font-family="Times-12" font-size="14.00"> &#160;Providers</text>
<polygon fill="#fb8072" stroke="transparent" points="927.5,-10 927.5,-30 947.5,-30 947.5,-10 927.5,-10"/>
<text text-anchor="start" x="951.23" y="-15.4" font-family="Times-12" font-size="14.00"> &#160;Exports</text>
<g id="clust1" class="cluster">
<title>cluster_AdminModule</title>
<polygon fill="none" stroke="black" stroke-dasharray="1,5" points="1185,-70 1185,-347 1531,-347 1531,-70 1185,-70"/>
</g>
<g id="clust3" class="cluster">
<title>cluster_AdminModule_imports</title>
<polygon fill="none" stroke="black" points="1193,-78 1193,-195 1317,-195 1317,-78 1193,-78"/>
</g>
<g id="clust4" class="cluster">
<title>cluster_AdminModule_exports</title>
<polygon fill="none" stroke="black" points="1270,-287 1270,-339 1412,-339 1412,-287 1270,-287"/>
</g>
<g id="clust6" class="cluster">
<title>cluster_AdminModule_providers</title>
<polygon fill="none" stroke="black" points="1325,-143 1325,-195 1511,-195 1511,-143 1325,-143"/>
</g>
<g id="clust7" class="cluster">
<title>cluster_AppModule</title>
<polygon fill="none" stroke="black" stroke-dasharray="1,5" points="352,-211 352,-339 719,-339 719,-211 352,-211"/>
</g>
<g id="clust9" class="cluster">
<title>cluster_AppModule_imports</title>
<polygon fill="none" stroke="black" points="498,-219 498,-271 711,-271 711,-219 498,-219"/>
</g>
<g id="clust12" class="cluster">
<title>cluster_AppModule_providers</title>
<polygon fill="none" stroke="black" points="360,-219 360,-271 490,-271 490,-219 360,-219"/>
</g>
<g id="clust13" class="cluster">
<title>cluster_AuthModule</title>
<polygon fill="none" stroke="black" stroke-dasharray="1,5" points="172,-135 172,-203 838,-203 838,-135 172,-135"/>
</g>
<g id="clust16" class="cluster">
<title>cluster_AuthModule_exports</title>
<polygon fill="none" stroke="black" points="608,-143 608,-195 830,-195 830,-143 608,-143"/>
</g>
<g id="clust18" class="cluster">
<title>cluster_AuthModule_providers</title>
<polygon fill="none" stroke="black" points="180,-143 180,-195 600,-195 600,-143 180,-143"/>
</g>
<g id="clust19" class="cluster">
<title>cluster_OrdersModule</title>
<polygon fill="none" stroke="black" stroke-dasharray="1,5" points="889,-211 889,-279 1177,-279 1177,-211 889,-211"/>
</g>
<g id="clust22" class="cluster">
<title>cluster_OrdersModule_exports</title>
<polygon fill="none" stroke="black" points="1053,-219 1053,-271 1169,-271 1169,-219 1053,-219"/>
</g>
<g id="clust24" class="cluster">
<title>cluster_OrdersModule_providers</title>
<polygon fill="none" stroke="black" points="897,-219 897,-271 1045,-271 1045,-219 897,-219"/>
</g>
<g id="clust25" class="cluster">
<title>cluster_ProductsModule</title>
<polygon fill="none" stroke="black" stroke-dasharray="1,5" points="846,-135 846,-203 1160,-203 1160,-135 846,-135"/>
</g>
<g id="clust28" class="cluster">
<title>cluster_ProductsModule_exports</title>
<polygon fill="none" stroke="black" points="1026,-143 1026,-195 1152,-195 1152,-143 1026,-143"/>
</g>
<g id="clust30" class="cluster">
<title>cluster_ProductsModule_providers</title>
<polygon fill="none" stroke="black" points="854,-143 854,-195 1018,-195 1018,-143 854,-143"/>
</g>
<g id="clust31" class="cluster">
<title>cluster_UsersModule</title>
<polygon fill="none" stroke="black" stroke-dasharray="1,5" points="8,-135 8,-203 164,-203 164,-135 8,-135"/>
</g>
<g id="clust36" class="cluster">
<title>cluster_UsersModule_providers</title>
<polygon fill="none" stroke="black" points="16,-143 16,-195 156,-195 156,-143 16,-143"/>
</g>
<!-- OrdersModule -->
<g id="node1" class="node">
<title>OrdersModule</title>
<polygon fill="#8dd3c7" stroke="black" points="1303.64,-187 1300.64,-191 1279.64,-191 1276.64,-187 1206.36,-187 1206.36,-151 1303.64,-151 1303.64,-187"/>
<text text-anchor="middle" x="1255" y="-164.8" font-family="Times,serif" font-size="14.00">OrdersModule</text>
</g>
<!-- AdminModule -->
<g id="node3" class="node">
<title>AdminModule</title>
<polygon fill="#8dd3c7" stroke="black" points="1390.44,-263 1387.44,-267 1366.44,-267 1363.44,-263 1291.56,-263 1291.56,-227 1390.44,-227 1390.44,-263"/>
<text text-anchor="middle" x="1341" y="-240.8" font-family="Times,serif" font-size="14.00">AdminModule</text>
</g>
<!-- OrdersModule&#45;&gt;AdminModule -->
<g id="edge1" class="edge">
<title>OrdersModule&#45;&gt;AdminModule</title>
<path fill="none" stroke="black" d="M1297.8,-187.01C1297.8,-187.01 1297.8,-216.85 1297.8,-216.85"/>
<polygon fill="black" stroke="black" points="1294.3,-216.85 1297.8,-226.85 1301.3,-216.85 1294.3,-216.85"/>
</g>
<!-- AppModule -->
<g id="node8" class="node">
<title>AppModule</title>
<polygon fill="#8dd3c7" stroke="black" points="705.66,-331 702.66,-335 681.66,-335 678.66,-331 622.34,-331 622.34,-295 705.66,-295 705.66,-331"/>
<text text-anchor="middle" x="664" y="-308.8" font-family="Times,serif" font-size="14.00">AppModule</text>
</g>
<!-- OrdersModule&#45;&gt;AppModule -->
<g id="edge7" class="edge">
<title>OrdersModule&#45;&gt;AppModule</title>
<path fill="none" stroke="black" d="M1224.04,-187.24C1224.04,-225.99 1224.04,-313 1224.04,-313 1224.04,-313 716.09,-313 716.09,-313"/>
<polygon fill="black" stroke="black" points="716.09,-309.5 706.09,-313 716.09,-316.5 716.09,-309.5"/>
</g>
<!-- OrdersService  -->
<g id="node15" class="node">
<title>OrdersService </title>
<polygon fill="#fb8072" stroke="black" points="1160.57,-263 1061.43,-263 1061.43,-227 1160.57,-227 1160.57,-263"/>
<text text-anchor="middle" x="1111" y="-240.8" font-family="Times,serif" font-size="14.00">OrdersService </text>
</g>
<!-- OrdersModule&#45;&gt;OrdersService  -->
<g id="edge17" class="edge">
<title>OrdersModule&#45;&gt;OrdersService </title>
<path fill="none" stroke="black" stroke-dasharray="5,2" d="M1206.16,-169C1179.76,-169 1152.51,-169 1152.51,-169 1152.51,-169 1152.51,-216.99 1152.51,-216.99"/>
<polygon fill="black" stroke="black" points="1149.01,-216.99 1152.51,-226.99 1156.01,-216.99 1149.01,-216.99"/>
</g>
<!-- ProductsModule -->
<g id="node2" class="node">
<title>ProductsModule</title>
<polygon fill="#8dd3c7" stroke="black" points="1309.04,-122 1306.04,-126 1285.04,-126 1282.04,-122 1200.96,-122 1200.96,-86 1309.04,-86 1309.04,-122"/>
<text text-anchor="middle" x="1255" y="-99.8" font-family="Times,serif" font-size="14.00">ProductsModule</text>
</g>
<!-- ProductsModule&#45;&gt;OrdersModule -->
<g id="edge16" class="edge">
<title>ProductsModule&#45;&gt;OrdersModule</title>
<path fill="none" stroke="black" d="M1255,-122.11C1255,-122.11 1255,-140.99 1255,-140.99"/>
<polygon fill="black" stroke="black" points="1251.5,-140.99 1255,-150.99 1258.5,-140.99 1251.5,-140.99"/>
</g>
<!-- ProductsModule&#45;&gt;AdminModule -->
<g id="edge2" class="edge">
<title>ProductsModule&#45;&gt;AdminModule</title>
<path fill="none" stroke="black" d="M1309.29,-104C1316.31,-104 1321.11,-104 1321.11,-104 1321.11,-104 1321.11,-216.86 1321.11,-216.86"/>
<polygon fill="black" stroke="black" points="1317.61,-216.86 1321.11,-226.86 1324.61,-216.86 1317.61,-216.86"/>
</g>
<!-- ProductsModule&#45;&gt;AppModule -->
<g id="edge8" class="edge">
<title>ProductsModule&#45;&gt;AppModule</title>
<path fill="none" stroke="black" d="M1200.65,-95C1189.33,-95 1180.76,-95 1180.76,-95 1180.76,-95 1180.76,-304 1180.76,-304 1180.76,-304 715.85,-304 715.85,-304"/>
<polygon fill="black" stroke="black" points="715.85,-300.5 705.85,-304 715.85,-307.5 715.85,-300.5"/>
</g>
<!-- ProductsService  -->
<g id="node17" class="node">
<title>ProductsService </title>
<polygon fill="#fb8072" stroke="black" points="1144.47,-187 1033.53,-187 1033.53,-151 1144.47,-151 1144.47,-187"/>
<text text-anchor="middle" x="1089" y="-164.8" font-family="Times,serif" font-size="14.00">ProductsService </text>
</g>
<!-- ProductsModule&#45;&gt;ProductsService  -->
<g id="edge19" class="edge">
<title>ProductsModule&#45;&gt;ProductsService </title>
<path fill="none" stroke="black" stroke-dasharray="5,2" d="M1200.65,-113C1152.23,-113 1089,-113 1089,-113 1089,-113 1089,-140.97 1089,-140.97"/>
<polygon fill="black" stroke="black" points="1085.5,-140.97 1089,-150.97 1092.5,-140.97 1085.5,-140.97"/>
</g>
<!-- AdminUserService  -->
<g id="node4" class="node">
<title>AdminUserService </title>
<polygon fill="#fb8072" stroke="black" points="1404.29,-331 1277.71,-331 1277.71,-295 1404.29,-295 1404.29,-331"/>
<text text-anchor="middle" x="1341" y="-308.8" font-family="Times,serif" font-size="14.00">AdminUserService </text>
</g>
<!-- AdminModule&#45;&gt;AdminUserService  -->
<g id="edge3" class="edge">
<title>AdminModule&#45;&gt;AdminUserService </title>
<path fill="none" stroke="black" stroke-dasharray="5,2" d="M1341,-263.22C1341,-263.22 1341,-284.73 1341,-284.73"/>
<polygon fill="black" stroke="black" points="1337.5,-284.73 1341,-294.73 1344.5,-284.73 1337.5,-284.73"/>
</g>
<!-- AdminModule&#45;&gt;AppModule -->
<g id="edge5" class="edge">
<title>AdminModule&#45;&gt;AppModule</title>
<path fill="none" stroke="black" d="M1291.74,-245C1266.86,-245 1241.89,-245 1241.89,-245 1241.89,-245 1241.89,-322 1241.89,-322 1241.89,-322 716.03,-322 716.03,-322"/>
<polygon fill="black" stroke="black" points="716.03,-318.5 706.03,-322 716.03,-325.5 716.03,-318.5"/>
</g>
<!-- AdminUserService -->
<g id="node5" class="node">
<title>AdminUserService</title>
<ellipse fill="#fdb462" stroke="black" cx="1418" cy="-169" rx="85.09" ry="18"/>
<text text-anchor="middle" x="1418" y="-164.8" font-family="Times,serif" font-size="14.00">AdminUserService</text>
</g>
<!-- AdminUserService&#45;&gt;AdminModule -->
<g id="edge4" class="edge">
<title>AdminUserService&#45;&gt;AdminModule</title>
<path fill="none" stroke="black" d="M1361.59,-182.59C1361.59,-182.59 1361.59,-216.96 1361.59,-216.96"/>
<polygon fill="black" stroke="black" points="1358.09,-216.96 1361.59,-226.96 1365.09,-216.96 1358.09,-216.96"/>
</g>
<!-- AuthModule -->
<g id="node6" class="node">
<title>AuthModule</title>
<polygon fill="#8dd3c7" stroke="black" points="702.55,-263 699.55,-267 678.55,-267 675.55,-263 615.45,-263 615.45,-227 702.55,-227 702.55,-263"/>
<text text-anchor="middle" x="659" y="-240.8" font-family="Times,serif" font-size="14.00">AuthModule</text>
</g>
<!-- AuthModule&#45;&gt;AppModule -->
<g id="edge6" class="edge">
<title>AuthModule&#45;&gt;AppModule</title>
<path fill="none" stroke="black" d="M662.47,-263.22C662.47,-263.22 662.47,-284.73 662.47,-284.73"/>
<polygon fill="black" stroke="black" points="658.97,-284.73 662.47,-294.73 665.97,-284.73 658.97,-284.73"/>
</g>
<!-- JwtAuthGuard  -->
<g id="node10" class="node">
<title>JwtAuthGuard </title>
<polygon fill="#fb8072" stroke="black" points="821.92,-187 720.08,-187 720.08,-151 821.92,-151 821.92,-187"/>
<text text-anchor="middle" x="771" y="-164.8" font-family="Times,serif" font-size="14.00">JwtAuthGuard </text>
</g>
<!-- AuthModule&#45;&gt;JwtAuthGuard  -->
<g id="edge11" class="edge">
<title>AuthModule&#45;&gt;JwtAuthGuard </title>
<path fill="none" stroke="black" stroke-dasharray="5,2" d="M702.62,-245C734.07,-245 771,-245 771,-245 771,-245 771,-197.01 771,-197.01"/>
<polygon fill="black" stroke="black" points="774.5,-197.01 771,-187.01 767.5,-197.01 774.5,-197.01"/>
</g>
<!-- RolesGuard  -->
<g id="node11" class="node">
<title>RolesGuard </title>
<polygon fill="#fb8072" stroke="black" points="702.37,-187 615.63,-187 615.63,-151 702.37,-151 702.37,-187"/>
<text text-anchor="middle" x="659" y="-164.8" font-family="Times,serif" font-size="14.00">RolesGuard </text>
</g>
<!-- AuthModule&#45;&gt;RolesGuard  -->
<g id="edge12" class="edge">
<title>AuthModule&#45;&gt;RolesGuard </title>
<path fill="none" stroke="black" stroke-dasharray="5,2" d="M680.59,-226.99C680.59,-226.99 680.59,-197.15 680.59,-197.15"/>
<polygon fill="black" stroke="black" points="684.09,-197.15 680.59,-187.15 677.09,-197.15 684.09,-197.15"/>
</g>
<!-- UsersModule -->
<g id="node7" class="node">
<title>UsersModule</title>
<polygon fill="#8dd3c7" stroke="black" points="597.92,-263 594.92,-267 573.92,-267 570.92,-263 506.08,-263 506.08,-227 597.92,-227 597.92,-263"/>
<text text-anchor="middle" x="552" y="-240.8" font-family="Times,serif" font-size="14.00">UsersModule</text>
</g>
<!-- UsersModule&#45;&gt;AppModule -->
<g id="edge9" class="edge">
<title>UsersModule&#45;&gt;AppModule</title>
<path fill="none" stroke="black" d="M552,-263.27C552,-281.56 552,-307 552,-307 552,-307 612.3,-307 612.3,-307"/>
<polygon fill="black" stroke="black" points="612.3,-310.5 622.3,-307 612.3,-303.5 612.3,-310.5"/>
</g>
<!-- AppService -->
<g id="node9" class="node">
<title>AppService</title>
<ellipse fill="#fdb462" stroke="black" cx="425" cy="-245" rx="56.74" ry="18"/>
<text text-anchor="middle" x="425" y="-240.8" font-family="Times,serif" font-size="14.00">AppService</text>
</g>
<!-- AppService&#45;&gt;AppModule -->
<g id="edge10" class="edge">
<title>AppService&#45;&gt;AppModule</title>
<path fill="none" stroke="black" d="M425,-263.29C425,-285.21 425,-319 425,-319 425,-319 612.1,-319 612.1,-319"/>
<polygon fill="black" stroke="black" points="612.1,-322.5 622.1,-319 612.1,-315.5 612.1,-322.5"/>
</g>
<!-- AuthService -->
<g id="node12" class="node">
<title>AuthService</title>
<ellipse fill="#fdb462" stroke="black" cx="533" cy="-169" rx="59.11" ry="18"/>
<text text-anchor="middle" x="533" y="-164.8" font-family="Times,serif" font-size="14.00">AuthService</text>
</g>
<!-- AuthService&#45;&gt;AuthModule -->
<g id="edge13" class="edge">
<title>AuthService&#45;&gt;AuthModule</title>
<path fill="none" stroke="black" d="M592.65,-169C600.82,-169 606.47,-169 606.47,-169 606.47,-169 606.47,-245 606.47,-245 606.47,-245 607.34,-245 607.34,-245"/>
<polygon fill="black" stroke="black" points="605.14,-248.5 615.14,-245 605.14,-241.5 605.14,-248.5"/>
</g>
<!-- JwtAuthGuard -->
<g id="node13" class="node">
<title>JwtAuthGuard</title>
<ellipse fill="#fdb462" stroke="black" cx="388" cy="-169" rx="67.78" ry="18"/>
<text text-anchor="middle" x="388" y="-164.8" font-family="Times,serif" font-size="14.00">JwtAuthGuard</text>
</g>
<!-- JwtAuthGuard&#45;&gt;AuthModule -->
<g id="edge14" class="edge">
<title>JwtAuthGuard&#45;&gt;AuthModule</title>
<path fill="none" stroke="black" d="M412.13,-186C412.13,-194.5 412.13,-203 412.13,-203 412.13,-203 659,-203 659,-203 659,-203 659,-216.94 659,-216.94"/>
<polygon fill="black" stroke="black" points="655.5,-216.94 659,-226.94 662.5,-216.94 655.5,-216.94"/>
</g>
<!-- JwtStrategy -->
<g id="node14" class="node">
<title>JwtStrategy</title>
<ellipse fill="#fdb462" stroke="black" cx="245" cy="-169" rx="56.76" ry="18"/>
<text text-anchor="middle" x="245" y="-164.8" font-family="Times,serif" font-size="14.00">JwtStrategy</text>
</g>
<!-- JwtStrategy&#45;&gt;AuthModule -->
<g id="edge15" class="edge">
<title>JwtStrategy&#45;&gt;AuthModule</title>
<path fill="none" stroke="black" d="M245,-187.06C245,-198.44 245,-211 245,-211 245,-211 637.41,-211 637.41,-211 637.41,-211 637.41,-216.81 637.41,-216.81"/>
<polygon fill="black" stroke="black" points="633.91,-216.81 637.41,-226.81 640.91,-216.81 633.91,-216.81"/>
</g>
<!-- OrdersService -->
<g id="node16" class="node">
<title>OrdersService</title>
<ellipse fill="#fdb462" stroke="black" cx="971" cy="-245" rx="66.03" ry="18"/>
<text text-anchor="middle" x="971" y="-240.8" font-family="Times,serif" font-size="14.00">OrdersService</text>
</g>
<!-- OrdersService&#45;&gt;OrdersModule -->
<g id="edge18" class="edge">
<title>OrdersService&#45;&gt;OrdersModule</title>
<path fill="none" stroke="black" d="M1021.78,-233.4C1021.78,-218.63 1021.78,-195 1021.78,-195 1021.78,-195 1259.75,-195 1259.75,-195 1259.75,-195 1259.75,-194.21 1259.75,-194.21"/>
<polygon fill="black" stroke="black" points="1263.25,-197.06 1259.75,-187.06 1256.25,-197.06 1263.25,-197.06"/>
</g>
<!-- ProductsService -->
<g id="node18" class="node">
<title>ProductsService</title>
<ellipse fill="#fdb462" stroke="black" cx="936" cy="-169" rx="73.57" ry="18"/>
<text text-anchor="middle" x="936" y="-164.8" font-family="Times,serif" font-size="14.00">ProductsService</text>
</g>
<!-- ProductsService&#45;&gt;ProductsModule -->
<g id="edge20" class="edge">
<title>ProductsService&#45;&gt;ProductsModule</title>
<path fill="none" stroke="black" d="M936,-150.89C936,-131.66 936,-104 936,-104 936,-104 1190.89,-104 1190.89,-104"/>
<polygon fill="black" stroke="black" points="1190.89,-107.5 1200.89,-104 1190.89,-100.5 1190.89,-107.5"/>
</g>
<!-- UsersService -->
<g id="node19" class="node">
<title>UsersService</title>
<ellipse fill="#fdb462" stroke="black" cx="86" cy="-169" rx="61.95" ry="18"/>
<text text-anchor="middle" x="86" y="-164.8" font-family="Times,serif" font-size="14.00">UsersService</text>
</g>
<!-- UsersService&#45;&gt;UsersModule -->
<g id="edge21" class="edge">
<title>UsersService&#45;&gt;UsersModule</title>
<path fill="none" stroke="black" d="M86,-187.05C86,-201.37 86,-219 86,-219 86,-219 549.3,-219 549.3,-219 549.3,-219 549.3,-219.79 549.3,-219.79"/>
<polygon fill="black" stroke="black" points="545.8,-216.94 549.3,-226.94 552.8,-216.94 545.8,-216.94"/>
</g>
</g>
</svg>
