<?xml version="1.0" encoding="UTF-8" standalone="no"?>
<!DOCTYPE svg PUBLIC "-//W3C//DTD SVG 1.1//EN"
 "http://www.w3.org/Graphics/SVG/1.1/DTD/svg11.dtd">
<!-- Generated by graphviz version 2.47.0 (20210316.0004)
 -->
<!-- Title: dependencies Pages: 1 -->
<svg width="674pt" height="284pt"
 viewBox="0.00 0.00 674.00 284.00" xmlns="http://www.w3.org/2000/svg" xmlns:xlink="http://www.w3.org/1999/xlink">
<g id="graph0" class="graph" transform="scale(1 1) rotate(0) translate(4 280)">
<title>dependencies</title>
<polygon fill="white" stroke="transparent" points="-4,4 -4,-280 670,-280 670,4 -4,4"/>
<text text-anchor="start" x="312.01" y="-42.4" font-family="Times-12" font-weight="bold" font-size="14.00">Legend</text>
<polygon fill="#ffffb3" stroke="transparent" points="99,-10 99,-30 119,-30 119,-10 99,-10"/>
<text text-anchor="start" x="122.63" y="-15.4" font-family="Times-12" font-size="14.00"> &#160;Declarations</text>
<polygon fill="#8dd3c7" stroke="transparent" points="212,-10 212,-30 232,-30 232,-10 212,-10"/>
<text text-anchor="start" x="235.73" y="-15.4" font-family="Times-12" font-size="14.00"> &#160;Module</text>
<polygon fill="#80b1d3" stroke="transparent" points="298,-10 298,-30 318,-30 318,-10 298,-10"/>
<text text-anchor="start" x="321.78" y="-15.4" font-family="Times-12" font-size="14.00"> &#160;Bootstrap</text>
<polygon fill="#fdb462" stroke="transparent" points="395,-10 395,-30 415,-30 415,-10 395,-10"/>
<text text-anchor="start" x="418.67" y="-15.4" font-family="Times-12" font-size="14.00"> &#160;Providers</text>
<polygon fill="#fb8072" stroke="transparent" points="491,-10 491,-30 511,-30 511,-10 491,-10"/>
<text text-anchor="start" x="514.73" y="-15.4" font-family="Times-12" font-size="14.00"> &#160;Exports</text>
<g id="clust1" class="cluster">
<title>cluster_AuthModule</title>
<polygon fill="none" stroke="black" stroke-dasharray="1,5" points="8,-70 8,-268 658,-268 658,-70 8,-70"/>
</g>
<g id="clust6" class="cluster">
<title>cluster_AuthModule_providers</title>
<polygon fill="none" stroke="black" points="16,-78 16,-130 650,-130 650,-78 16,-78"/>
</g>
<g id="clust4" class="cluster">
<title>cluster_AuthModule_exports</title>
<polygon fill="none" stroke="black" points="259,-208 259,-260 481,-260 481,-208 259,-208"/>
</g>
<!-- JwtAuthGuard  -->
<g id="node1" class="node">
<title>JwtAuthGuard </title>
<polygon fill="#fb8072" stroke="black" points="472.92,-252 371.08,-252 371.08,-216 472.92,-216 472.92,-252"/>
<text text-anchor="middle" x="422" y="-229.8" font-family="Times,serif" font-size="14.00">JwtAuthGuard </text>
</g>
<!-- RolesGuard  -->
<g id="node2" class="node">
<title>RolesGuard </title>
<polygon fill="#fb8072" stroke="black" points="353.37,-252 266.63,-252 266.63,-216 353.37,-216 353.37,-252"/>
<text text-anchor="middle" x="310" y="-229.8" font-family="Times,serif" font-size="14.00">RolesGuard </text>
</g>
<!-- AuthModule -->
<g id="node3" class="node">
<title>AuthModule</title>
<polygon fill="#8dd3c7" stroke="black" points="409.55,-187 406.55,-191 385.55,-191 382.55,-187 322.45,-187 322.45,-151 409.55,-151 409.55,-187"/>
<text text-anchor="middle" x="366" y="-164.8" font-family="Times,serif" font-size="14.00">AuthModule</text>
</g>
<!-- AuthModule&#45;&gt;JwtAuthGuard  -->
<g id="edge1" class="edge">
<title>AuthModule&#45;&gt;JwtAuthGuard </title>
<path fill="none" stroke="black" stroke-dasharray="5,2" d="M390.41,-187.11C390.41,-187.11 390.41,-205.99 390.41,-205.99"/>
<polygon fill="black" stroke="black" points="386.91,-205.99 390.41,-215.99 393.91,-205.99 386.91,-205.99"/>
</g>
<!-- AuthModule&#45;&gt;RolesGuard  -->
<g id="edge2" class="edge">
<title>AuthModule&#45;&gt;RolesGuard </title>
<path fill="none" stroke="black" stroke-dasharray="5,2" d="M337.71,-187.11C337.71,-187.11 337.71,-205.99 337.71,-205.99"/>
<polygon fill="black" stroke="black" points="334.21,-205.99 337.71,-215.99 341.21,-205.99 334.21,-205.99"/>
</g>
<!-- AuthService -->
<g id="node4" class="node">
<title>AuthService</title>
<ellipse fill="#fdb462" stroke="black" cx="583" cy="-104" rx="59.11" ry="18"/>
<text text-anchor="middle" x="583" y="-99.8" font-family="Times,serif" font-size="14.00">AuthService</text>
</g>
<!-- AuthService&#45;&gt;AuthModule -->
<g id="edge3" class="edge">
<title>AuthService&#45;&gt;AuthModule</title>
<path fill="none" stroke="black" d="M583,-122.11C583,-141.34 583,-169 583,-169 583,-169 419.65,-169 419.65,-169"/>
<polygon fill="black" stroke="black" points="419.65,-165.5 409.65,-169 419.65,-172.5 419.65,-165.5"/>
</g>
<!-- JwtAuthGuard -->
<g id="node5" class="node">
<title>JwtAuthGuard</title>
<ellipse fill="#fdb462" stroke="black" cx="438" cy="-104" rx="67.78" ry="18"/>
<text text-anchor="middle" x="438" y="-99.8" font-family="Times,serif" font-size="14.00">JwtAuthGuard</text>
</g>
<!-- JwtAuthGuard&#45;&gt;AuthModule -->
<g id="edge4" class="edge">
<title>JwtAuthGuard&#45;&gt;AuthModule</title>
<path fill="none" stroke="black" d="M389.94,-116.84C389.94,-116.84 389.94,-140.52 389.94,-140.52"/>
<polygon fill="black" stroke="black" points="386.44,-140.52 389.94,-150.52 393.44,-140.52 386.44,-140.52"/>
</g>
<!-- JwtStrategy -->
<g id="node6" class="node">
<title>JwtStrategy</title>
<ellipse fill="#fdb462" stroke="black" cx="295" cy="-104" rx="56.76" ry="18"/>
<text text-anchor="middle" x="295" y="-99.8" font-family="Times,serif" font-size="14.00">JwtStrategy</text>
</g>
<!-- JwtStrategy&#45;&gt;AuthModule -->
<g id="edge5" class="edge">
<title>JwtStrategy&#45;&gt;AuthModule</title>
<path fill="none" stroke="black" d="M336.93,-116.23C336.93,-116.23 336.93,-140.68 336.93,-140.68"/>
<polygon fill="black" stroke="black" points="333.43,-140.68 336.93,-150.68 340.43,-140.68 333.43,-140.68"/>
</g>
<!-- RefreshTokenStrategy -->
<g id="node7" class="node">
<title>RefreshTokenStrategy</title>
<ellipse fill="#fdb462" stroke="black" cx="122" cy="-104" rx="97.83" ry="18"/>
<text text-anchor="middle" x="122" y="-99.8" font-family="Times,serif" font-size="14.00">RefreshTokenStrategy</text>
</g>
<!-- RefreshTokenStrategy&#45;&gt;AuthModule -->
<g id="edge6" class="edge">
<title>RefreshTokenStrategy&#45;&gt;AuthModule</title>
<path fill="none" stroke="black" d="M122,-122.11C122,-141.34 122,-169 122,-169 122,-169 312.38,-169 312.38,-169"/>
<polygon fill="black" stroke="black" points="312.38,-172.5 322.38,-169 312.38,-165.5 312.38,-172.5"/>
</g>
</g>
</svg>
